<?xml version="1.0" encoding="UTF-8"?>
<svg width="311px" height="236px" viewBox="0 0 311 236" version="1.1" xmlns="http://www.w3.org/2000/svg" xmlns:xlink="http://www.w3.org/1999/xlink">
    <!-- Generator: Sketch 51.3 (57544) - http://www.bohemiancoding.com/sketch -->
    <title>01_planete-1</title>
    <desc>Created with Sketch.</desc>
    <defs>
        <radialGradient cx="50.0042244%" cy="49.9957756%" fx="50.0042244%" fy="49.9957756%" r="50%" id="radialGradient-1">
            <stop stop-color="#00C6CF" offset="0%"></stop>
            <stop stop-color="#00C2CA" offset="17%"></stop>
            <stop stop-color="#02B4BD" offset="36%"></stop>
            <stop stop-color="#049FA6" offset="56%"></stop>
            <stop stop-color="#078086" offset="77%"></stop>
            <stop stop-color="#0B595D" offset="98%"></stop>
            <stop stop-color="#0B5559" offset="100%"></stop>
        </radialGradient>
    </defs>
    <g id="chat" stroke="none" stroke-width="1" fill="none" fill-rule="evenodd">
        <g id="ECRAN1" transform="translate(-825.000000, -402.000000)" fill-rule="nonzero">
            <g id="planete" transform="translate(0.000000, 179.000000)">
                <g id="01_planete-1" transform="translate(824.000000, 212.000000)">
                    <circle id="Oval" fill="url(#radialGradient-1)" transform="translate(156.341700, 129.209800) rotate(-84.232111) translate(-156.341700, -129.209800) " cx="156.3417" cy="129.2098" r="117.772661"></circle>
                    <path d="M264.62,191.97 C256.78,191.183333 247.74,189.866667 237.5,188.02 C212.4,183.5 180.4,175.81 144.97,165.79 C80.97,147.69 18.08,125.49 7.62,117.31 C2.29,113.13 0.15,109.31 1.28,105.96 C4.82,95.46 40.28,94.71 44.28,94.65 L43.79,96.65 C33.31,96.79 5.79,98.86 3.21,106.65 C2.38,109.11 4.29,112.18 8.88,115.78 C18.98,123.69 82.88,146.18 145.54,163.91 C224.75,186.31 279.47,195.38 295.68,188.8 C298.6,187.62 300.16,186 300.45,183.85 C301.02,179.66 296.3,170.56 273.7,153.16 L274.24,150.91 C293.24,165.55 303.38,177.17 302.44,184.12 C302.05,187 300.03,189.19 296.44,190.65 C290.43,193.04 279.78,193.49 264.62,191.97 Z" id="Shape" fill="#7DE2DF"></path>
                    <path d="M279.59,138.23 C272.016667,140.41 263.136667,142.543333 252.95,144.63 C227.95,149.75 195.4,154.5 158.78,158.35 C92.64,165.35 25.99,168.05 13.25,164.35 C6.75,162.45 3.35,159.7 3.15,156.17 C2.54,145.11 35.15,131.25 38.85,129.71 L39.13,131.71 C29.46,135.71 4.7,147.86 5.13,156.04 C5.27,158.63 8.19,160.78 13.79,162.41 C26.11,166.01 93.79,163.18 158.55,156.41 C240.41,147.8 294.55,135.9 307.2,123.77 C309.47,121.59 310.32,119.51 309.79,117.41 C308.79,113.31 301.92,106.88 274.48,99.11 L274,96.78 C297.09,103.32 310,110.12 311.73,116.92 C312.43,119.74 311.38,122.53 308.59,125.21 C303.96,129.64 294.23,134.01 279.59,138.23 Z" id="Shape" fill="#7DE2DF"></path>
                </g>
            </g>
        </g>
    </g>
</svg>