<svg id="Calque_14" data-name="Calque 14" xmlns="http://www.w3.org/2000/svg" xmlns:xlink="http://www.w3.org/1999/xlink" viewBox="0 0 218.95 168.4">
  <defs>
    <radialGradient id="Nouvelle_nuance_de_dégradé_2" data-name="Nouvelle nuance de dégradé 2" cx="75.85" cy="111.41" fx="-40.93357934208814" fy="-24.139092569492732" r="178.92" gradientUnits="userSpaceOnUse">
      <stop offset="0" stop-color="#eb307c"/>
      <stop offset="1" stop-color="#1293c4"/>
    </radialGradient>
  </defs>
  <title>01_planete2-v3</title>
  <circle cx="105.39" cy="84.2" r="84.2" style="fill: url(#Nouvelle_nuance_de_dégradé_2)"/>
  <path d="M604.39,454.74c-7.35,0-11.92-1.88-13.61-5.61-5.57-12.3,24.89-41.47,26.13-42.65l.84,2.08a202.69,202.69,0,0,0-15,16.27c-8.66,10.9-12.18,19-10.16,23.48,1.65,3.65,7.22,5.06,16.53,4.2C625.75,451,660.81,430.41,710.55,393c40.32-30.31,79.19-63.31,90.14-72.71A17.89,17.89,0,0,0,807,307.91c.21-3.68-.85-6.3-3.16-7.78-4.8-3.09-17.3-3.22-51,14.46l-1.49-1.39c27.73-14.55,45.93-19.66,53.56-14.75,2.91,1.87,4.32,5.19,4.07,9.57a19.89,19.89,0,0,1-7,13.82c-25.07,21.5-152.15,128.93-192.67,132.65Q606.68,454.74,604.39,454.74Z" transform="translate(-590.11 -291.97)" style="fill: #7de2df"/>
</svg>
