<svg id="PETITES_ETOILES" data-name="PETITES ETOILES" xmlns="http://www.w3.org/2000/svg" viewBox="0 0 1223.63 687.59">
  <title>01_petites-etoiles-v2</title>
  <circle cx="16.82" cy="182.73" r="1.93" style="fill: #fff"/>
  <circle cx="104.49" cy="192.81" r="1.93" style="fill: #fff"/>
  <circle cx="1.93" cy="422.74" r="1.93" style="fill: #fff"/>
  <circle cx="503.76" cy="1.93" r="1.93" style="fill: #fff"/>
  <circle cx="1020.42" cy="61.12" r="1.93" style="fill: #fff"/>
  <circle cx="1183.99" cy="91.59" r="1.93" style="fill: #fff"/>
  <circle cx="1047.81" cy="112.9" r="1.93" style="fill: #fff"/>
  <circle cx="576.03" cy="156.67" r="1.93" style="fill: #fff"/>
  <circle cx="586.95" cy="104.13" r="1.93" style="fill: #fff"/>
  <circle cx="679.63" cy="49.01" r="1.93" style="fill: #fff"/>
  <circle cx="828.29" cy="197.47" r="1.93" style="fill: #fff"/>
  <circle cx="733.53" cy="167.15" r="1.93" transform="translate(173.78 676.13) rotate(-57.88)" style="fill: #fff"/>
  <circle cx="850.11" cy="113.88" r="1.93" transform="translate(273.49 749.92) rotate(-57.88)" style="fill: #fff"/>
  <circle cx="1249.89" cy="142.1" r="1.93" transform="translate(436.83 1101.73) rotate(-57.88)" style="fill: #fff"/>
  <circle cx="932.06" cy="213.19" r="1.93" transform="matrix(0.77, -0.64, 0.64, 0.77, 50.77, 621.51)" style="fill: #fff"/>
  <circle cx="850.11" cy="640.6" r="1.93" transform="translate(-241.32 667.82) rotate(-39.73)" style="fill: #fff"/>
  <circle cx="1153.23" cy="413.48" r="1.93" transform="translate(-26.17 809.11) rotate(-39.73)" style="fill: #fff"/>
  <circle cx="806.6" cy="269.97" r="1.93" transform="matrix(0.77, -0.64, 0.64, 0.77, -14.49, 554.44)" style="fill: #fff"/>
  <circle cx="944.62" cy="191.61" r="1.93" transform="translate(251.92 866.37) rotate(-57.88)" style="fill: #fff"/>
  <circle cx="344.92" cy="90.47" r="1.93" style="fill: #fff"/>
  <circle cx="267.75" cy="11.18" r="1.93" style="fill: #fff"/>
  <circle cx="734.58" cy="399.79" r="1.93" style="fill: #fff"/>
  <circle cx="826.36" cy="685.66" r="1.93" style="fill: #fff"/>
  <circle cx="254.82" cy="173.37" r="1.93" style="fill: #fff"/>
  <circle cx="232.82" cy="110.98" r="1.93" style="fill: #fff"/>
  <circle cx="166.82" cy="277.66" r="1.93" style="fill: #fff"/>
  <circle cx="87.09" cy="487.61" r="1.93" style="fill: #fff"/>
  <circle cx="29.09" cy="619.11" r="1.93" style="fill: #fff"/>
  <circle cx="11.74" cy="637.93" r="1.93" style="fill: #fff"/>
  <circle cx="155.76" cy="595.58" r="1.93" style="fill: #fff"/>
  <circle cx="141.09" cy="637.93" r="1.93" style="fill: #fff"/>
  <circle cx="1185.92" cy="292.63" r="1.93" style="fill: #fff"/>
  <circle cx="501.83" cy="443.39" r="1.93" style="fill: #fff"/>
</svg>
